#!OML:ASF H:\GeneralSubjects\Female5\Project 1\Capture day 1\Session 1\Female5.ASF
:FULLY-SPECIFIED
:DEGREES
451
root 4.82913 16.5387 2.75647 -266.521 -56.3464 -85.4529
lowerback 22.5332 -1.38322 -3.9121
upperback -3.38349 -1.58932 12.4785
thorax -16.2094 0.251418 17.4058
lowerneck -15.6907 -8.27419 -6.43202
upperneck 33.0044 -14.5117 7.6189
head 15.2555 -6.46839 1.49984
rclavicle -1.28216e-014 -3.49861e-014
rhumerus -65.5604 31.226 -68.422
rradius 29.5448
rwrist 1.24979
rhand -20.3737 -11.9026
rfingers 7.12502
rthumb 5.97906 -41.7983
lclavicle -1.28216e-014 -3.49861e-014
lhumerus 5.15717 -42.4424 67.4201
lradius 80.16
lwrist -19.0472
lhand -32.7376 19.0645
lfingers 7.12502
lthumb -5.96087 48.9607
rfemur -37.4497 22.7849 -12.8445
rtibia 5.82057
rfoot 320.394 -31.3193
rtoes 10.8751
lfemur -23.7158 -23.3646 13.4061
ltibia 28.0149
lfoot 334.542 19.1947
ltoes -68.4714
452
root 4.88101 16.5565 2.70894 -264.866 -57.3901 -86.4369
lowerback 22.0295 -1.26088 -4.15579
upperback -3.48656 -1.53827 11.6792
thorax -16.0209 0.255742 16.4735
lowerneck -15.3705 -8.17963 -5.97627
upperneck 31.6952 -14.3662 8.03125
head 14.5641 -6.32107 1.64357
rclavicle -1.03368e-014 -5.40694e-014
rhumerus -65.051 30.7195 -67.8767
rradius 30.7816
rwrist 1.45207
rhand -20.63 -11.4752
rfingers 7.12502
rthumb 5.73159 -41.3777
lclavicle -1.03368e-014 -5.40694e-014
lhumerus 4.04793 -42.8408 66.7684
lradius 80.3112
lwrist -19.7336
lhand -32.2284 19.6087
lfingers 7.12502
lthumb -5.46928 49.5181
rfemur -38.3403 15.7001 -7.87316
rtibia 12.9477
rfoot 328.655 -26.7807
rtoes 6.83592
lfemur -23.8735 -23.653 12.763
ltibia 27.0943
lfoot 334.672 19.9226
ltoes -68.4507
453
root 4.92404 16.5701 2.67029 -263.653 -58.8649 -87.0511
lowerback 21.5304 -1.19191 -4.46599
upperback -3.60446 -1.59298 10.6659
thorax -15.8132 0.209181 15.3698
lowerneck -15.4059 -8.0125 -5.24917
upperneck 30.6396 -14.187 8.33412
head 14.0518 -6.12886 1.68281
rclavicle 4.65156e-014 -9.06458e-014
rhumerus -64.3638 29.6964 -67.161
rradius 31.7594
rwrist 2.74803
rhand -20.5378 -11.0597
rfingers 7.12502
rthumb 5.82058 -40.9597
lclavicle 4.65156e-014 -9.06458e-014
lhumerus 2.93991 -43.1392 66.293
lradius 80.606
lwrist -20.3074
lhand -31.3199 19.2994
lfingers 7.12502
lthumb -4.59205 49.2296
rfemur -39.2378 11.1444 -5.09572
rtibia 19.5339
rfoot 335.711 -25.737
rtoes 1.03437
lfemur -24.0347 -23.9455 11.4423
ltibia 26.216
lfoot 335.24 20.8112
ltoes -68.3941
454
root 4.95554 16.5813 2.63343 -263.039 -60.5164 -87.3277
lowerback 21.3187 -1.14832 -4.92382
upperback -3.74512 -1.71997 9.71549
thorax -15.7824 0.163301 14.5086
lowerneck -15.5416 -7.73947 -4.62577
upperneck 29.7393 -13.8082 8.52552
head 13.6235 -5.87274 1.72416
rclavicle -1.8487e-014 1.25632e-013
rhumerus -63.6819 29.2904 -66.7033
rradius 32.5293
rwrist 3.2491
rhand -20.6088 -10.7753
rfingers 7.12502
rthumb 5.75208 -40.6772
lclavicle -1.8487e-014 1.25632e-013
lhumerus 1.22225 -43.337 66.6205
lradius 81.067
lwrist -20.0755
lhand -31.1961 19.639
lfingers 7.12502
lthumb -4.47249 49.5718
rfemur -39.5506 7.92148 -3.19189
rtibia 25.4921
rfoot 339.202 -24.3117
rtoes -3.51698
lfemur -23.7939 -24.4118 9.71824
ltibia 25.0663
lfoot 335.99 21.5398
ltoes -68.3223
455
root 4.98022 16.5834 2.59543 -262.838 -62.1242 -87.4302
lowerback 21.362 -1.15894 -5.39139
upperback -3.86056 -1.92089 8.942
thorax -15.8557 0.0976685 13.9234
lowerneck -15.9814 -7.41387 -4.25389
upperneck 29.2451 -13.2854 8.52939
head 13.4327 -5.58279 1.74515
rclavicle 5.56597e-015 8.5875e-014
rhumerus -63.0086 28.6822 -65.9665
rradius 33.2507
rwrist 3.24125
rhand -21.3649 -10.803
rfingers 7.12502
rthumb 5.02202 -40.7235
lclavicle 5.56597e-015 8.5875e-014
lhumerus -1.1082 -43.1826 67.6866
lradius 81.5609
lwrist -19.3381
lhand -31.6768 20.5784
lfingers 7.12502
lthumb -4.93667 50.5009
rfemur -39.4383 5.34395 -1.47625
rtibia 30.8712
rfoot 341.148 -23.2773
rtoes -6.84937
lfemur -23.1751 -25.0313 7.91409
ltibia 23.6977
lfoot 336.493 21.9756
ltoes -68.2447
456
root 4.99897 16.573 2.54911 -262.551 -63.5835 -87.7208
lowerback 21.3649 -1.19212 -5.80294
upperback -3.94113 -2.13361 8.30581
thorax -15.8705 0.0190302 13.4746
lowerneck -16.7393 -7.08077 -4.01663
upperneck 29.1936 -12.7034 8.28343
head 13.4832 -5.28916 1.69107
rclavicle -6.16232e-014 9.06458e-014
rhumerus -62.4134 28.1695 -65.4799
rradius 33.8666
rwrist 1.93052
rhand -22.3725 -11.1489
rfingers 7.12502
rthumb 4.04907 -41.0902
lclavicle -6.16232e-014 9.06458e-014
lhumerus -3.77875 -42.748 69.0871
lradius 82.0342
lwrist -18.4817
lhand -31.8354 21.7723
lfingers 7.12502
lthumb -5.08978 51.6912
rfemur -39.2063 3.17753 0.342428
rtibia 35.6177
rfoot 342.498 -22.7885
rtoes -12.0075
lfemur -22.3368 -25.5876 6.28276
ltibia 22.2082
lfoot 336.605 22.2976
ltoes -68.1252
457
root 5.00922 16.5525 2.49071 -261.752 -65.0642 -88.5227
lowerback 21.1932 -1.13837 -6.32988
upperback -4.0869 -2.25737 7.67008
thorax -15.8904 -0.00457496 13.0666
lowerneck -17.2881 -6.78804 -3.63418
upperneck 28.9404 -12.0921 7.74244
head 13.3684 -5.01677 1.51416
rclavicle 4.59193e-014 7.95139e-015
rhumerus -62.0661 27.4658 -65.2025
rradius 34.3129
rwrist 0.395557
rhand -23.1707 -11.8203
rfingers 7.12502
rthumb 3.27823 -41.7748
lclavicle 4.59193e-014 7.95139e-015
lhumerus -6.50609 -42.387 70.6782
lradius 81.8857
lwrist -17.8991
lhand -31.9355 22.9018
lfingers 7.12502
lthumb -5.18644 52.8184
rfemur -38.9247 1.29341 2.13835
rtibia 39.631
rfoot 341.882 -21.3084
rtoes -7.81155
lfemur -21.4094 -26.0623 4.65975
ltibia 20.7034
lfoot 336.572 22.7783
ltoes -67.9614
